<?xml version="1.0" encoding="UTF-8" standalone="no"?>
<!-- Created with Inkscape (http://www.inkscape.org/) -->

<svg
   xmlns:dc="http://purl.org/dc/elements/1.1/"
   xmlns:cc="http://creativecommons.org/ns#"
   xmlns:rdf="http://www.w3.org/1999/02/22-rdf-syntax-ns#"
   xmlns:svg="http://www.w3.org/2000/svg"
   xmlns="http://www.w3.org/2000/svg"
   xmlns:xlink="http://www.w3.org/1999/xlink"
   xmlns:sodipodi="http://sodipodi.sourceforge.net/DTD/sodipodi-0.dtd"
   xmlns:inkscape="http://www.inkscape.org/namespaces/inkscape"
   width="96px"
   height="96px"
   viewBox="0 0 96 96"
   version="1.1"
   id="SVGRoot"
   inkscape:version="0.92.0 r"
   sodipodi:docname="green-rescorder.svg">
  <sodipodi:namedview
     id="base"
     pagecolor="#ffffff"
     bordercolor="#666666"
     borderopacity="1.0"
     inkscape:pageopacity="0.0"
     inkscape:pageshadow="2"
     inkscape:zoom="1.8856181"
     inkscape:cx="28.678283"
     inkscape:cy="85.678192"
     inkscape:document-units="px"
     inkscape:current-layer="layer1"
     showgrid="false"
     inkscape:window-width="1366"
     inkscape:window-height="708"
     inkscape:window-x="0"
     inkscape:window-y="0"
     inkscape:window-maximized="1"
     inkscape:grid-bbox="true" />
  <defs
     id="defs6008">
    <linearGradient
       inkscape:collect="always"
       id="linearGradient4519">
      <stop
         style="stop-color:#37c871;stop-opacity:1"
         offset="0"
         id="stop4515" />
      <stop
         style="stop-color:#2ca05a;stop-opacity:1"
         offset="1"
         id="stop4517" />
    </linearGradient>
    <linearGradient
       gradientTransform="matrix(3.5158208,0,0,3.0604515,-221.46073,-42.422433)"
       gradientUnits="userSpaceOnUse"
       id="linearGradient3197"
       x1="55.143902"
       x2="101.1198"
       xlink:href="#linearGradient4013"
       y1="13.1091"
       y2="54.67522" />
    <linearGradient
       id="linearGradient4013">
      <stop
         offset="0"
         stop-color="#fff"
         id="stop28" />
      <stop
         offset="1"
         stop-color="#fff"
         stop-opacity="0"
         id="stop30" />
    </linearGradient>
    <radialGradient
       inkscape:collect="always"
       xlink:href="#linearGradient4519"
       id="radialGradient4521"
       cx="48"
       cy="48"
       fx="48"
       fy="48"
       r="48"
       gradientUnits="userSpaceOnUse"
       gradientTransform="matrix(1.3512244,0,0,1.2787888,-16.858767,-13.381862)" />
  </defs>
  <metadata
     id="metadata6011">
    <rdf:RDF>
      <cc:Work
         rdf:about="">
        <dc:format>image/svg+xml</dc:format>
        <dc:type
           rdf:resource="http://purl.org/dc/dcmitype/StillImage" />
        <dc:title />
      </cc:Work>
    </rdf:RDF>
  </metadata>
  <g
     id="layer1"
     inkscape:groupmode="layer"
     inkscape:label="Layer 1">
    <rect
       style="opacity:0.95999995;fill:url(#radialGradient4521);fill-opacity:1;fill-rule:nonzero;stroke:none"
       id="rect6573"
       width="96"
       height="96"
       x="0"
       y="0"
       ry="12"
       rx="9.375" />
    <path
       inkscape:connector-curvature="0"
       style="display:inline;opacity:0.126;fill:url(#linearGradient3197);fill-opacity:1;fill-rule:evenodd;stroke-width:2.30214787"
       id="path146"
       d="M -10.7995,-8.4135 96,96 96.312179,8.6609477 C 96.328995,4.0062382 87.55178,-0.09869218 75.865155,-0.10159186 Z"
       sodipodi:nodetypes="ccccc" />
    <path
       style="display:inline;fill:#ffffff;fill-rule:evenodd;stroke:#e4e4e4;stroke-width:0.07940421;stroke-miterlimit:4;stroke-dasharray:none;stroke-opacity:1"
       inkscape:connector-curvature="0"
       id="path162"
       d="m 22.116542,35.277591 c -2.623034,0 -4.746042,2.083061 -4.746042,4.706095 v 16.032628 c 0,2.623034 2.123008,4.706095 4.746042,4.706095 h 32.98261 c 2.623034,0 4.746041,-2.083061 4.746041,-4.706095 V 39.983686 c 0,-2.623034 -2.123007,-4.706095 -4.746041,-4.706095 z m 52.564687,1.754815 c -0.26252,0.03306 -0.514448,0.07274 -0.757824,0.199347 -4.362408,2.270411 -9.269508,4.796324 -12.323524,6.700203 v 9.212843 c 0.272219,0.109245 9.256745,4.297701 12.323524,5.663266 2.171376,0.847544 4.706095,-1.201187 4.706095,-2.711987 V 39.983686 c 0,-1.321919 -2.110883,-3.182533 -3.948398,-2.95128 z m -45.22637,2.911334 h 0.07977 18.226084 c 4.406436,0.04301 8.01625,3.640444 8.01625,8.056196 0,4.44217 -3.653971,8.056196 -8.096143,8.056196 -4.44217,0 -8.056196,-3.614026 -8.056196,-8.056196 0,-2.13896 0.828656,-4.05024 2.193583,-5.503738 H 35.43706 c 1.37437,1.453498 2.193582,3.364778 2.193582,5.503738 0,4.44217 -3.653972,8.056196 -8.096142,8.056196 -4.442171,0 -8.056196,-3.614026 -8.056196,-8.056196 0,-4.414476 3.572293,-8.011018 7.976431,-8.056196 z m 0,2.552458 c -3.024663,0.04326 -5.423974,2.4681 -5.423974,5.503738 0,3.062695 2.441044,5.503738 5.503739,5.503738 3.062694,0 5.543684,-2.441043 5.543684,-5.503738 0,-3.062694 -2.480863,-5.503738 -5.543684,-5.503738 z m 18.226084,0 c -3.062695,0 -5.503738,2.441044 -5.503738,5.503738 0,3.062695 2.441043,5.503738 5.503738,5.503738 3.062694,0 5.543684,-2.441043 5.543684,-5.503738 0,-3.062694 -2.480862,-5.503738 -5.543684,-5.503738 z" />
  </g>
</svg>
